{
  "accessors": [
    {
      "bufferView": 2,
      "componentType": 5126,
      "count": 566,
      "max": [
        1.1216200590133667,
        0.4403199851512909,
        1.010599970817566
      ],
      "min": [
        -1.122789978981018,
        -0.774869978427887,
        -0.03043000027537346
      ],
      "type": "VEC3"
    },
    {
      "bufferView": 2,
      "byteOffset": 6792,
      "componentType": 5126,
      "count": 566,
      "max": [
        0.9984608292579651,
        0.9940130710601807,
        0.9998717308044434
      ],
      "min": [
        -0.9985571503639221,
        -0.9938197731971741,
        -0.8629316091537476
      ],
      "type": "VEC3"
    },
    {
      "bufferView": 1,
      "componentType": 5126,
      "count": 566,
      "max": [
        0.9933009743690491,
        -0.005187999922782183
      ],
      "min": [
        0.008086999878287315,
        -0.9923400282859802
      ],
      "type": "VEC2"
    },
    {
      "bufferView": 0,
      "componentType": 5125,
      "count": 2160,
      "type": "SCALAR"
    },
    {
      "bufferView": 2,
      "byteOffset": 13584,
      "componentType": 5126,
      "count": 1183,
      "max": [
        1.0474599599838257,
        0.5823090076446533,
        5.771299839019775
      ],
      "min": [
        -1.0483100414276123,
        -0.614391028881073,
        0.013509999960660934
      ],
      "type": "VEC3"
    },
    {
      "bufferView": 2,
      "byteOffset": 27780,
      "componentType": 5126,
      "count": 1183,
      "max": [
        0.9996936917304993,
        0.9986151456832886,
        0.995803952217102
      ],
      "min": [
        -0.9991583228111267,
        -0.9999957084655762,
        -0.9995782971382141
      ],
      "type": "VEC3"
    },
    {
      "bufferView": 1,
      "byteOffset": 4528,
      "componentType": 5126,
      "count": 1183,
      "max": [
        0.9922940135002136,
        -0.00871300045400858
      ],
      "min": [
        0.006775000132620335,
        -0.9942319989204407
      ],
      "type": "VEC2"
    },
    {
      "bufferView": 0,
      "byteOffset": 8640,
      "componentType": 5125,
      "count": 5064,
      "type": "SCALAR"
    },
    {
      "bufferView": 2,
      "byteOffset": 41976,
      "componentType": 5126,
      "count": 4084,
      "max": [
        2.4774599075317383,
        0.7011290192604065,
        7.85978889465332
      ],
      "min": [
        -2.549570083618164,
        -0.78364098072052,
        4.370490074157715
      ],
      "type": "VEC3"
    },
    {
      "bufferView": 2,
      "byteOffset": 90984,
      "componentType": 5126,
      "count": 4084,
      "max": [
        0.9984732270240784,
        0.9997079968452454,
        0.9984187483787537
      ],
      "min": [
        -0.9998194575309753,
        -0.9999113082885742,
        -0.9987497925758362
      ],
      "type": "VEC3"
    },
    {
      "bufferView": 1,
      "byteOffset": 13992,
      "componentType": 5126,
      "count": 4084,
      "max": [
        0.9983670115470886,
        -0.0005489999894052744
      ],
      "min": [
        0.0025019999593496323,
        -0.9954379796981812
      ],
      "type": "VEC2"
    },
    {
      "bufferView": 0,
      "byteOffset": 28896,
      "componentType": 5125,
      "count": 15069,
      "type": "SCALAR"
    },
    {
      "bufferView": 2,
      "byteOffset": 139992,
      "componentType": 5126,
      "count": 960,
      "max": [
        1.0867999792099,
        0.3925679922103882,
        8.966439247131348
      ],
      "min": [
        -1.2170900106430054,
        -0.6984620094299316,
        7.42405891418457
      ],
      "type": "VEC3"
    },
    {
      "bufferView": 2,
      "byteOffset": 151512,
      "componentType": 5126,
      "count": 960,
      "max": [
        0.9949296116828918,
        0.9986523985862732,
        0.9963803887367249
      ],
      "min": [
        -0.996917724609375,
        -0.9891231060028076,
        -0.9947020411491394
      ],
      "type": "VEC3"
    },
    {
      "bufferView": 1,
      "byteOffset": 46664,
      "componentType": 5126,
      "count": 960,
      "max": [
        0.9955899715423584,
        -0.003982999827712774
      ],
      "min": [
        0.0010679999832063913,
        -0.9955899715423584
      ],
      "type": "VEC2"
    },
    {
      "bufferView": 0,
      "byteOffset": 89172,
      "componentType": 5125,
      "count": 4074,
      "type": "SCALAR"
    },
    {
      "bufferView": 2,
      "byteOffset": 163032,
      "componentType": 5126,
      "count": 1119,
      "max": [
        2.4491899013519287,
        0.42597898840904236,
        7.885599136352539
      ],
      "min": [
        -2.4503400325775146,
        -0.7105810046195984,
        3.2080399990081787
      ],
      "type": "VEC3"
    },
    {
      "bufferView": 2,
      "byteOffset": 176460,
      "componentType": 5126,
      "count": 1119,
      "max": [
        0.9995920062065125,
        0.9995588660240173,
        0.895317792892456
      ],
      "min": [
        -0.9998087286949158,
        -0.9998655319213867,
        -0.9508645534515381
      ],
      "type": "VEC3"
    },
    {
      "bufferView": 1,
      "byteOffset": 54344,
      "componentType": 5126,
      "count": 1119,
      "max": [
        0.9915310144424438,
        -0.015182999894022942
      ],
      "min": [
        0.02200400084257126,
        -0.972029983997345
      ],
      "type": "VEC2"
    },
    {
      "bufferView": 0,
      "byteOffset": 105468,
      "componentType": 5125,
      "count": 4749,
      "type": "SCALAR"
    }
  ],
  "asset": {
    "extras": {
      "author": "FFXN (https://sketchfab.com/anuginethuka)",
      "license": "CC-BY-4.0 (http://creativecommons.org/licenses/by/4.0/)",
      "source": "https://sketchfab.com/3d-models/neon-female-bundel-freefire-1st-booyah-pass-875b0fe061484e81ad0ce28a6ba7b2dd",
      "title": "NEON FEMALE BUNDEL FREEFIRE 1ST BOOYAH PASS"
    },
    "generator": "Sketchfab-14.81.0",
    "version": "2.0"
  },
  "bufferViews": [
    {
      "buffer": 0,
      "byteLength": 124464,
      "name": "floatBufferViews",
      "target": 34963
    },
    {
      "buffer": 0,
      "byteLength": 63296,
      "byteOffset": 124464,
      "byteStride": 8,
      "name": "floatBufferViews",
      "target": 34962
    },
    {
      "buffer": 0,
      "byteLength": 189888,
      "byteOffset": 187760,
      "byteStride": 12,
      "name": "floatBufferViews",
      "target": 34962
    }
  ],
  "buffers": [
    {
      "byteLength": 377648,
      "uri": "scene.bin"
    }
  ],
  "extensionsUsed": [
    "KHR_materials_specular"
  ],
  "images": [
    {
      "uri": "textures/mat0_Mesh_0003.rip_baseColor.png"
    },
    {
      "uri": "textures/mat0_Mesh_0004.rip_baseColor.png"
    },
    {
      "uri": "textures/mat0_Mesh_0006.rip_baseColor.png"
    },
    {
      "uri": "textures/mat0_Mesh_0009.rip_baseColor.png"
    },
    {
      "uri": "textures/mat0_Mesh_0010.rip_baseColor.png"
    }
  ],
  "materials": [
    {
      "doubleSided": true,
      "extensions": {
        "KHR_materials_specular": {
          "specularColorFactor": [
            1.0,
            1.0,
            1.0
          ],
          "specularFactor": 0.0
        }
      },
      "name": "mat0_Mesh_0003.rip",
      "pbrMetallicRoughness": {
        "baseColorTexture": {
          "index": 0
        },
        "metallicFactor": 0.0,
        "roughnessFactor": 0.6
      }
    },
    {
      "doubleSided": true,
      "extensions": {
        "KHR_materials_specular": {
          "specularColorFactor": [
            1.0,
            1.0,
            1.0
          ],
          "specularFactor": 0.0
        }
      },
      "name": "mat0_Mesh_0004.rip",
      "pbrMetallicRoughness": {
        "baseColorTexture": {
          "index": 1
        },
        "metallicFactor": 0.0,
        "roughnessFactor": 0.6
      }
    },
    {
      "doubleSided": true,
      "extensions": {
        "KHR_materials_specular": {
          "specularColorFactor": [
            1.0,
            1.0,
            1.0
          ],
          "specularFactor": 0.0
        }
      },
      "name": "mat0_Mesh_0006.rip",
      "pbrMetallicRoughness": {
        "baseColorTexture": {
          "index": 2
        },
        "metallicFactor": 0.0,
        "roughnessFactor": 0.6
      }
    },
    {
      "doubleSided": true,
      "extensions": {
        "KHR_materials_specular": {
          "specularColorFactor": [
            1.0,
            1.0,
            1.0
          ],
          "specularFactor": 0.0
        }
      },
      "name": "mat0_Mesh_0009.rip",
      "pbrMetallicRoughness": {
        "baseColorTexture": {
          "index": 3
        },
        "metallicFactor": 0.0,
        "roughnessFactor": 0.6
      }
    },
    {
      "doubleSided": true,
      "extensions": {
        "KHR_materials_specular": {
          "specularColorFactor": [
            1.0,
            1.0,
            1.0
          ],
          "specularFactor": 0.0
        }
      },
      "name": "mat0_Mesh_0010.rip",
      "pbrMetallicRoughness": {
        "baseColorTexture": {
          "index": 4
        },
        "metallicFactor": 0.0,
        "roughnessFactor": 0.6
      }
    }
  ],
  "meshes": [
    {
      "name": "Object_0",
      "primitives": [
        {
          "attributes": {
            "NORMAL": 1,
            "POSITION": 0,
            "TEXCOORD_0": 2
          },
          "indices": 3,
          "material": 0,
          "mode": 4
        }
      ]
    },
    {
      "name": "Object_1",
      "primitives": [
        {
          "attributes": {
            "NORMAL": 5,
            "POSITION": 4,
            "TEXCOORD_0": 6
          },
          "indices": 7,
          "material": 1,
          "mode": 4
        }
      ]
    },
    {
      "name": "Object_2",
      "primitives": [
        {
          "attributes": {
            "NORMAL": 9,
            "POSITION": 8,
            "TEXCOORD_0": 10
          },
          "indices": 11,
          "material": 2,
          "mode": 4
        }
      ]
    },
    {
      "name": "Object_3",
      "primitives": [
        {
          "attributes": {
            "NORMAL": 13,
            "POSITION": 12,
            "TEXCOORD_0": 14
          },
          "indices": 15,
          "material": 3,
          "mode": 4
        }
      ]
    },
    {
      "name": "Object_4",
      "primitives": [
        {
          "attributes": {
            "NORMAL": 17,
            "POSITION": 16,
            "TEXCOORD_0": 18
          },
          "indices": 19,
          "material": 4,
          "mode": 4
        }
      ]
    }
  ],
  "nodes": [
    {
      "children": [
        1
      ],
      "matrix": [
        1.0,
        0.0,
        0.0,
        0.0,
        0.0,
        2.220446049250313e-16,
        -1.0,
        0.0,
        0.0,
        1.0,
        2.220446049250313e-16,
        0.0,
        0.0,
        0.0,
        0.0,
        1.0
      ],
      "name": "Sketchfab_model"
    },
    {
      "children": [
        2,
        3,
        4,
        5,
        6
      ],
      "name": "booyah female.obj.cleaner.materialmerger.gles"
    },
    {
      "mesh": 0,
      "name": "Object_2"
    },
    {
      "mesh": 1,
      "name": "Object_3"
    },
    {
      "mesh": 2,
      "name": "Object_4"
    },
    {
      "mesh": 3,
      "name": "Object_5"
    },
    {
      "mesh": 4,
      "name": "Object_6"
    }
  ],
  "samplers": [
    {
      "magFilter": 9729,
      "minFilter": 9987,
      "wrapS": 10497,
      "wrapT": 10497
    }
  ],
  "scene": 0,
  "scenes": [
    {
      "name": "Sketchfab_Scene",
      "nodes": [
        0
      ]
    }
  ],
  "textures": [
    {
      "sampler": 0,
      "source": 0
    },
    {
      "sampler": 0,
      "source": 1
    },
    {
      "sampler": 0,
      "source": 2
    },
    {
      "sampler": 0,
      "source": 3
    },
    {
      "sampler": 0,
      "source": 4
    }
  ]
}
